# xmcd CD database file
#
# Track frame offsets:
#	182
#	7400
#	38010
#	61137
#	81065
#	95802
#	139900
#	164877
#	207490
#
# Disc length: 2992 seconds
#
# Revision: 0
# Processed by: cddbd v1.5.2PL0 Copyright (c) Steve Scherf et al.
# Submitted via: CDex 1.51
#
DISCID=830bae09
DTITLE=Patrick Scheyder - solo
DYEAR=1995
DGENRE=Jazz
TTITLE0=Ouverture
TTITLE1=Estonia I
TTITLE2=Quasi Cello
TTITLE3=Dream Store
TTITLE4=Fractures
TTITLE5=Fantastico
TTITLE6=Graves
TTITLE7=Satanas
TTITLE8=Minima
EXTD=YEAR: 1995
EXTT0=
EXTT1=
EXTT2=
EXTT3=
EXTT4=
EXTT5=
EXTT6=
EXTT7=
EXTT8=
PLAYORDER=
